<?xml version="1.0" encoding="utf-8"?>
<svg version="1.1" xmlns="http://www.w3.org/2000/svg" xmlns:xlink="http://www.w3.org/1999/xlink"
	 viewBox="80 255 920 510" style="enable-background:new 0 0 1080 1080;" xml:space="preserve">
<style type="text/css">
	.st0{fill:#D3EBF7;}
	.st1{fill:#1D9EDF;}
	.st2{fill:#FFFFFF;}
</style>
<g>
	<path class="st1" d="M392.57,459.47c50.5,9.34,106.38,42.25,126.43,54.84c2.65,1.67,5.91-0.97,4.83-3.9
		c-9.85-26.74-48.61-105.92-166.61-123.95c-9.32-1.42-17.23,6.83-15.51,16.09l1.43,7.7C347.81,435.32,367.49,454.82,392.57,459.47z"
		/>
	<path class="st1" d="M738.37,338.63c1.9,27.5-13.52,53.16-38.55,64.71c-68.48,31.6-139.09,86.87-161.37,110.32
		c-2.48,2.61-6.84,0.51-6.35-3.05c4.39-31.91,30.08-128.61,180.11-212.07c10.39-5.78,23.28,1.14,24.28,12.99L738.37,338.63z"/>
	<circle class="st1" cx="473.51" cy="356.74" r="31.46"/>
	<circle class="st1" cx="577.83" cy="311.64" r="31.46"/>
</g>
<g>
	<path class="st1" d="M116.61,623.88h3.32l4.89,6.28c3.84-2.91,8.32-5.23,13.44-6.98c5.12-1.74,9.65-2.62,13.61-2.62
		c12.45,0,21.98,4.3,28.62,12.91c6.63,8.61,9.95,19.31,9.95,32.11c0,12.8-3.4,23.5-10.21,32.1c-6.8,8.61-16.26,12.91-28.35,12.91
		c-3.03,0-6.43-0.52-10.21-1.57c-3.78-1.05-7.36-2.5-10.73-4.36v40.31l-5.94,0.46c-8.94,0.69-16.57-6.37-16.57-15.34v-98.03
		C108.41,627.55,112.08,623.88,116.61,623.88z M145.93,691.23c7.79,0,13.26-2.82,16.4-8.46c3.14-5.64,4.71-11.37,4.71-17.19
		c0-6.63-1.4-12.56-4.19-17.8c-2.79-5.23-8.44-7.85-16.92-7.85c-2.44,0-4.97,0.44-7.59,1.31c-2.62,0.87-5.09,2.07-7.42,3.58v41.53
		c2.33,1.39,4.8,2.56,7.42,3.49C140.96,690.77,143.48,691.23,145.93,691.23z"/>
	<path class="st1" d="M238.23,710.6c-10.35,0-18.03-2.53-23.03-7.59c-5-5.06-7.5-11.66-7.5-19.8c0-8.72,2.97-15.41,8.9-20.07
		c5.93-4.65,13.67-6.98,23.21-6.98h16.58c-0.12-4.3-1.37-7.65-3.75-10.03c-2.39-2.38-5.67-3.58-9.86-3.58
		c-3.96,0-8.26,0.55-12.91,1.66c-4.65,1.11-8.55,2.42-11.69,3.93l-2.58-7.97c-2.2-6.79,1.82-14.01,8.75-15.75
		c0.85-0.21,1.73-0.42,2.65-0.62c6.69-1.45,11.83-2.18,15.44-2.18c10.12,0,18.78,2.94,26,8.81c7.21,5.88,10.82,13.35,10.82,22.42
		v46.05c0,5.31-4.3,9.61-9.61,9.61h-2.08l-5.58-7.15c-3.14,2.44-6.83,4.6-11.08,6.46C246.63,709.67,242.42,710.6,238.23,710.6z
		 M227.06,683.21c0,2.44,0.99,4.62,2.97,6.54c1.98,1.92,4.59,2.88,7.85,2.88c3.14,0,6.31-0.7,9.51-2.09c3.2-1.4,6.25-3.49,9.16-6.28
		v-12.91h-17.1c-3.96,0-7.01,1.22-9.16,3.66C228.14,677.45,227.06,680.18,227.06,683.21z"/>
	<path class="st1" d="M382.35,585.32v113.19c0,5.52-4.47,9.99-9.99,9.99h-1.87l-6.28-8.2c-3.84,3.26-8.35,5.79-13.52,7.59
		c-5.18,1.8-9.86,2.7-14.05,2.7c-12.33,0-21.81-4.3-28.44-12.91c-6.63-8.61-9.95-19.31-9.95-32.1c0-12.79,3.52-23.5,10.56-32.11
		c7.04-8.61,16.66-12.91,28.88-12.91c3.14,0,6.69,0.55,10.64,1.66c3.95,1.11,7.68,2.65,11.17,4.62v-23.12
		c0-9.32,7.14-17.08,16.43-17.86L382.35,585.32z M342.74,639.94c-7.91,0-13.41,2.79-16.49,8.38c-3.08,5.58-4.62,11.34-4.62,17.28
		c0,6.63,1.4,12.56,4.19,17.8c2.79,5.23,8.43,7.85,16.92,7.85c2.67,0,5.5-0.61,8.46-1.83c2.97-1.22,5.73-2.64,8.29-4.28v-39.08
		c-2.56-1.74-5.32-3.2-8.29-4.36C348.24,640.52,345.42,639.94,342.74,639.94z"/>
	<path class="st1" d="M430.33,629.47c3.72-2.91,8-5.12,12.82-6.63c4.83-1.51,9.16-2.27,13-2.27c11.52,0,19.69,3.38,24.52,10.12
		c4.83,6.75,7.24,15.01,7.24,24.78v38.5c0,8.03-6.51,14.54-14.54,14.54h-8.14v-52c0-5.35-1.28-9.45-3.84-12.3
		c-2.56-2.85-6.34-4.28-11.34-4.28c-3.26,0-6.63,0.85-10.12,2.53c-3.49,1.69-6.69,3.64-9.6,5.84v46.96
		c0,7.31-5.92,13.23-13.23,13.23h-9.28V603.94c0-9.44,7.23-17.32,16.64-18.12l5.87-0.5V629.47z"/>
	<path class="st1" d="M581.64,582.03l49.1,123.13l-9.58,1.33c-8.55,1.18-16.78-3.69-19.85-11.75l-6.1-15.99h-47.99l-11.16,29.76
		h-9.27c-7.17,0-12.1-7.21-9.49-13.89l38.26-98.18c3.39-8.69,11.76-14.41,21.08-14.41H581.64z M570.85,615.14l-16.55,44.08h33.48
		L570.85,615.14z"/>
</g>
<g>
	<path class="st1" d="M701.05,601.22v88h25.05v4.04c0,8.54-6.92,15.46-15.46,15.46H650.1v-4.46c0-8.3,6.73-15.04,15.04-15.04h11.91
		v-88H650.1v-5.94c0-7.49,6.07-13.56,13.56-13.56h62.44v5.01c0,8-6.49,14.49-14.49,14.49H701.05z"/>
</g>
<g>
	<path class="st1" d="M761.43,621.82h3.22l4.89,6.28c3.84-2.91,8.32-5.23,13.44-6.98c5.12-1.74,9.65-2.62,13.61-2.62
		c12.45,0,21.98,4.31,28.62,12.91c6.63,8.61,9.95,19.31,9.95,32.11c0,12.8-3.4,23.5-10.21,32.11c-6.8,8.61-16.26,12.91-28.35,12.91
		c-3.03,0-6.43-0.52-10.21-1.57c-3.78-1.05-7.36-2.5-10.73-4.36v40.31l-8.71,0.67c-7.44,0.58-13.8-5.31-13.8-12.77v-100.7
		C753.14,625.53,756.85,621.82,761.43,621.82z M790.65,689.17c7.79,0,13.26-2.82,16.4-8.46c3.14-5.64,4.71-11.37,4.71-17.19
		c0-6.63-1.4-12.56-4.19-17.8c-2.79-5.23-8.44-7.85-16.92-7.85c-2.44,0-4.97,0.44-7.59,1.31c-2.62,0.87-5.09,2.07-7.42,3.58v41.53
		c2.33,1.4,4.8,2.56,7.42,3.49C785.68,688.7,788.21,689.17,790.65,689.17z"/>
	<path class="st1" d="M882.95,708.54c-10.35,0-18.03-2.53-23.03-7.59c-5-5.06-7.5-11.66-7.5-19.8c0-8.72,2.97-15.41,8.9-20.07
		c5.93-4.65,13.67-6.98,23.21-6.98h16.58c-0.12-4.3-1.37-7.65-3.75-10.03c-2.38-2.38-5.67-3.58-9.86-3.58
		c-3.96,0-8.26,0.55-12.91,1.66c-4.65,1.11-8.55,2.42-11.69,3.93l-2.8-8.63c-2.06-6.35,1.6-13.16,8.05-14.86
		c1.13-0.3,2.31-0.58,3.55-0.85c6.69-1.45,11.83-2.18,15.44-2.18c10.12,0,18.78,2.94,26,8.81c7.21,5.88,10.82,13.35,10.82,22.42
		v46.39c0,5.12-4.15,9.28-9.28,9.28h-2.41l-5.58-7.15c-3.14,2.44-6.83,4.6-11.08,6.46C891.35,707.6,887.14,708.54,882.95,708.54z
		 M871.78,681.14c0,2.44,0.99,4.62,2.97,6.54c1.98,1.92,4.59,2.88,7.85,2.88c3.14,0,6.31-0.7,9.51-2.09c3.2-1.4,6.25-3.49,9.16-6.28
		v-12.91h-17.1c-3.96,0-7.01,1.22-9.16,3.66C872.86,675.38,871.78,678.12,871.78,681.14z"/>
	<path class="st1" d="M970.19,583.25v107.83c0,8.48-6.87,15.35-15.35,15.35h-7.16V601.49c0-9.23,7.06-16.92,16.26-17.7
		L970.19,583.25z"/>
</g>
</svg>
